<svg xmlns="http://www.w3.org/2000/svg" xmlns:xlink="http://www.w3.org/1999/xlink" width="1344" zoomAndPan="magnify" viewBox="0 0 1008 1295.99994" height="1728" preserveAspectRatio="xMidYMid meet" version="1.0"><defs><g/><clipPath id="8f1048103a"><path d="M 11 8 L 505 8 L 505 189.472656 L 11 189.472656 Z M 11 8 " clip-rule="nonzero"/></clipPath><clipPath id="16e010769b"><path d="M 11 330.175781 L 505 330.175781 L 505 566 L 11 566 Z M 11 330.175781 " clip-rule="nonzero"/></clipPath><clipPath id="6989e54fdb"><rect x="0" width="516" y="0" height="576"/></clipPath><clipPath id="f0c7fbb11d"><path d="M 260 382 L 736 382 L 736 557.34375 L 260 557.34375 Z M 260 382 " clip-rule="nonzero"/></clipPath><clipPath id="3eeaff065b"><path d="M 260 698.199219 L 736 698.199219 L 736 926 L 260 926 Z M 260 698.199219 " clip-rule="nonzero"/></clipPath><clipPath id="73e0e2a889"><rect x="0" width="364" y="0" height="228"/></clipPath></defs><g transform="matrix(1, 0, 0, 1, 240, 368)"><g clip-path="url(#6989e54fdb)"><g clip-path="url(#8f1048103a)"><path fill="#000000" d="M 257.90625 33.726562 L 479.773438 85.347656 L 479.773438 322.808594 C 479.773438 377.363281 450.421875 428.203125 403.152344 455.464844 L 257.90625 539.285156 L 112.660156 455.464844 C 65.394531 428.179688 36.042969 377.363281 36.042969 322.808594 L 36.042969 85.347656 L 257.90625 33.726562 M 257.90625 8.636719 L 11.601562 65.949219 L 11.601562 322.808594 C 11.601562 386.28125 45.476562 444.914062 100.441406 476.621094 L 257.90625 567.503906 L 415.375 476.621094 C 470.363281 444.886719 504.210938 386.253906 504.210938 322.808594 L 504.210938 65.949219 Z M 257.90625 8.636719 " fill-opacity="1" fill-rule="nonzero"/></g><g clip-path="url(#16e010769b)"><path fill="#000000" d="M 257.90625 32.148438 L 479.773438 83.769531 L 479.773438 321.234375 C 479.773438 375.785156 450.421875 426.625 403.152344 453.890625 L 257.90625 537.710938 L 112.660156 453.890625 C 65.394531 426.601562 36.042969 375.785156 36.042969 321.234375 L 36.042969 83.769531 L 257.90625 32.148438 M 257.90625 7.058594 L 11.601562 64.375 L 11.601562 321.234375 C 11.601562 384.703125 45.476562 443.335938 100.441406 475.046875 L 257.90625 565.925781 L 415.375 475.046875 C 470.363281 443.3125 504.210938 384.679688 504.210938 321.234375 L 504.210938 64.375 Z M 257.90625 7.058594 " fill-opacity="1" fill-rule="nonzero"/></g></g></g><g clip-path="url(#f0c7fbb11d)"><path fill="#000000" d="M 498.058594 407.136719 L 712.210938 456.957031 L 712.210938 686.121094 C 712.210938 738.765625 683.878906 787.832031 638.253906 814.140625 L 498.058594 895.035156 L 357.859375 814.140625 C 312.234375 787.808594 283.90625 738.765625 283.90625 686.121094 L 283.90625 456.957031 L 498.058594 407.136719 M 498.058594 382.925781 L 260.3125 438.234375 L 260.3125 686.121094 C 260.3125 747.371094 293.011719 803.957031 346.066406 834.558594 L 498.058594 922.265625 L 650.050781 834.558594 C 703.128906 803.933594 735.800781 747.347656 735.800781 686.121094 L 735.800781 438.234375 Z M 498.058594 382.925781 " fill-opacity="1" fill-rule="nonzero"/></g><g clip-path="url(#3eeaff065b)"><path fill="#000000" d="M 498.058594 410.855469 L 712.210938 460.671875 L 712.210938 689.835938 C 712.210938 742.484375 683.878906 791.546875 638.253906 817.859375 L 498.058594 898.75 L 357.859375 817.859375 C 312.234375 791.523438 283.90625 742.484375 283.90625 689.835938 L 283.90625 460.671875 L 498.058594 410.855469 M 498.058594 386.640625 L 260.3125 441.953125 L 260.3125 689.835938 C 260.3125 751.089844 293.011719 807.671875 346.066406 838.277344 L 498.058594 925.980469 L 650.050781 838.277344 C 703.128906 807.648438 735.800781 751.066406 735.800781 689.835938 L 735.800781 441.953125 Z M 498.058594 386.640625 " fill-opacity="1" fill-rule="nonzero"/></g><g fill="#dc981b" fill-opacity="1"><g transform="translate(10.903831, 674.855008)"><g><path d="M 45.171875 -150.296875 L 45.171875 0 L 10.9375 0 L 10.9375 -150.296875 Z M 45.171875 -150.296875 "/></g></g></g><g fill="#dc981b" fill-opacity="1"><g transform="translate(54.620281, 674.855008)"><g><path d="M 10.9375 0 L 10.9375 -93.453125 L 43.171875 -93.453125 L 43.171875 -79.96875 L 43.546875 -79.96875 C 43.785156 -80.457031 44.175781 -81.066406 44.71875 -81.796875 C 45.269531 -82.523438 46.457031 -83.800781 48.28125 -85.625 C 50.101562 -87.445312 52.046875 -89.082031 54.109375 -90.53125 C 56.171875 -91.988281 58.84375 -93.296875 62.125 -94.453125 C 65.40625 -95.609375 68.742188 -96.1875 72.140625 -96.1875 C 75.660156 -96.1875 79.117188 -95.695312 82.515625 -94.71875 C 85.921875 -93.75 88.414062 -92.78125 90 -91.8125 L 92.546875 -90.359375 L 79.0625 -63.03125 C 75.050781 -66.425781 69.460938 -68.125 62.296875 -68.125 C 58.410156 -68.125 55.070312 -67.273438 52.28125 -65.578125 C 49.488281 -63.878906 47.515625 -61.816406 46.359375 -59.390625 C 45.203125 -56.960938 44.378906 -54.894531 43.890625 -53.1875 C 43.410156 -51.488281 43.171875 -50.15625 43.171875 -49.1875 L 43.171875 0 Z M 10.9375 0 "/></g></g></g><g fill="#dc981b" fill-opacity="1"><g transform="translate(132.94643, 674.855008)"><g><path d="M 19.765625 -11.109375 C 9.378906 -20.335938 4.1875 -32.175781 4.1875 -46.625 C 4.1875 -61.082031 9.585938 -72.957031 20.390625 -82.25 C 31.203125 -91.539062 44.566406 -96.1875 60.484375 -96.1875 C 76.148438 -96.1875 89.351562 -91.507812 100.09375 -82.15625 C 110.84375 -72.800781 116.21875 -60.957031 116.21875 -46.625 C 116.21875 -32.300781 110.960938 -20.492188 100.453125 -11.203125 C 89.953125 -1.910156 76.628906 2.734375 60.484375 2.734375 C 43.722656 2.734375 30.148438 -1.878906 19.765625 -11.109375 Z M 44.71875 -62.484375 C 40.53125 -58.359375 38.4375 -53.078125 38.4375 -46.640625 C 38.4375 -40.203125 40.441406 -34.945312 44.453125 -30.875 C 48.460938 -26.8125 53.742188 -24.78125 60.296875 -24.78125 C 66.609375 -24.78125 71.800781 -26.84375 75.875 -30.96875 C 79.945312 -35.09375 81.984375 -40.316406 81.984375 -46.640625 C 81.984375 -53.078125 79.882812 -58.359375 75.6875 -62.484375 C 71.5 -66.609375 66.367188 -68.671875 60.296875 -68.671875 C 54.109375 -68.671875 48.914062 -66.609375 44.71875 -62.484375 Z M 44.71875 -62.484375 "/></g></g></g><g fill="#dc981b" fill-opacity="1"><g transform="translate(240.964067, 674.855008)"><g><path d="M 10.9375 0 L 10.9375 -93.453125 L 43.171875 -93.453125 L 43.171875 -83.609375 L 43.546875 -83.609375 C 51.921875 -91.992188 60.84375 -96.1875 70.3125 -96.1875 C 74.925781 -96.1875 79.507812 -95.578125 84.0625 -94.359375 C 88.625 -93.148438 93 -91.269531 97.1875 -88.71875 C 101.375 -86.164062 104.773438 -82.550781 107.390625 -77.875 C 110.003906 -73.195312 111.3125 -67.765625 111.3125 -61.578125 L 111.3125 0 L 79.0625 0 L 79.0625 -52.828125 C 79.0625 -57.679688 77.507812 -61.929688 74.40625 -65.578125 C 71.3125 -69.222656 67.273438 -71.046875 62.296875 -71.046875 C 57.441406 -71.046875 53.039062 -69.160156 49.09375 -65.390625 C 45.144531 -61.628906 43.171875 -57.441406 43.171875 -52.828125 L 43.171875 0 Z M 10.9375 0 "/></g></g></g><g fill="#043370" fill-opacity="1"><g transform="translate(348.989742, 674.855008)"><g><path d="M 97.828125 -150.296875 L 97.828125 -120.234375 L 45.171875 -120.234375 L 45.171875 -90.359375 L 93.8125 -90.359375 L 93.8125 -60.296875 L 45.171875 -60.296875 L 45.171875 0 L 10.9375 0 L 10.9375 -150.296875 Z M 97.828125 -150.296875 "/></g></g></g><g fill="#043370" fill-opacity="1"><g transform="translate(439.884674, 674.855008)"><g><path d="M 19.765625 -11.109375 C 9.378906 -20.335938 4.1875 -32.175781 4.1875 -46.625 C 4.1875 -61.082031 9.585938 -72.957031 20.390625 -82.25 C 31.203125 -91.539062 44.566406 -96.1875 60.484375 -96.1875 C 76.148438 -96.1875 89.351562 -91.507812 100.09375 -82.15625 C 110.84375 -72.800781 116.21875 -60.957031 116.21875 -46.625 C 116.21875 -32.300781 110.960938 -20.492188 100.453125 -11.203125 C 89.953125 -1.910156 76.628906 2.734375 60.484375 2.734375 C 43.722656 2.734375 30.148438 -1.878906 19.765625 -11.109375 Z M 44.71875 -62.484375 C 40.53125 -58.359375 38.4375 -53.078125 38.4375 -46.640625 C 38.4375 -40.203125 40.441406 -34.945312 44.453125 -30.875 C 48.460938 -26.8125 53.742188 -24.78125 60.296875 -24.78125 C 66.609375 -24.78125 71.800781 -26.84375 75.875 -30.96875 C 79.945312 -35.09375 81.984375 -40.316406 81.984375 -46.640625 C 81.984375 -53.078125 79.882812 -58.359375 75.6875 -62.484375 C 71.5 -66.609375 66.367188 -68.671875 60.296875 -68.671875 C 54.109375 -68.671875 48.914062 -66.609375 44.71875 -62.484375 Z M 44.71875 -62.484375 "/></g></g></g><g fill="#043370" fill-opacity="1"><g transform="translate(547.9023, 674.855008)"><g><path d="M 10.9375 0 L 10.9375 -93.453125 L 43.171875 -93.453125 L 43.171875 -79.96875 L 43.546875 -79.96875 C 43.785156 -80.457031 44.175781 -81.066406 44.71875 -81.796875 C 45.269531 -82.523438 46.457031 -83.800781 48.28125 -85.625 C 50.101562 -87.445312 52.046875 -89.082031 54.109375 -90.53125 C 56.171875 -91.988281 58.84375 -93.296875 62.125 -94.453125 C 65.40625 -95.609375 68.742188 -96.1875 72.140625 -96.1875 C 75.660156 -96.1875 79.117188 -95.695312 82.515625 -94.71875 C 85.921875 -93.75 88.414062 -92.78125 90 -91.8125 L 92.546875 -90.359375 L 79.0625 -63.03125 C 75.050781 -66.425781 69.460938 -68.125 62.296875 -68.125 C 58.410156 -68.125 55.070312 -67.273438 52.28125 -65.578125 C 49.488281 -63.878906 47.515625 -61.816406 46.359375 -59.390625 C 45.203125 -56.960938 44.378906 -54.894531 43.890625 -53.1875 C 43.410156 -51.488281 43.171875 -50.15625 43.171875 -49.1875 L 43.171875 0 Z M 10.9375 0 "/></g></g></g><g transform="matrix(1, 0, 0, 1, 633, 513)"><g clip-path="url(#73e0e2a889)"><g fill="#043370" fill-opacity="1"><g transform="translate(1.07272, 163.662177)"><g><path d="M 41.34375 -93.453125 L 41.34375 -49 C 41.34375 -39.769531 42.738281 -33.210938 45.53125 -29.328125 C 48.332031 -25.441406 53.070312 -23.5 59.75 -23.5 C 66.425781 -23.5 71.160156 -25.441406 73.953125 -29.328125 C 76.742188 -33.210938 78.140625 -39.769531 78.140625 -49 L 78.140625 -93.453125 L 110.390625 -93.453125 L 110.390625 -41.171875 C 110.390625 -25.617188 106.347656 -14.410156 98.265625 -7.546875 C 90.191406 -0.691406 77.347656 2.734375 59.734375 2.734375 C 42.128906 2.734375 29.289062 -0.691406 21.21875 -7.546875 C 13.144531 -14.410156 9.109375 -25.617188 9.109375 -41.171875 L 9.109375 -93.453125 Z M 41.34375 -93.453125 "/></g></g></g><g fill="#043370" fill-opacity="1"><g transform="translate(108.154912, 163.662177)"><g><path d="M 10.921875 0 L 10.921875 -93.453125 L 43.171875 -93.453125 L 43.171875 -83.609375 L 43.53125 -83.609375 C 51.914062 -91.984375 60.84375 -96.171875 70.3125 -96.171875 C 77.113281 -96.171875 83.488281 -94.773438 89.4375 -91.984375 C 95.382812 -89.191406 99.878906 -84.882812 102.921875 -79.0625 C 112.390625 -90.46875 122.710938 -96.171875 133.890625 -96.171875 C 143.847656 -96.171875 152.40625 -93.378906 159.5625 -87.796875 C 166.726562 -82.210938 170.3125 -73.46875 170.3125 -61.5625 L 170.3125 0 L 138.078125 0 L 138.078125 -52.828125 C 138.078125 -57.804688 136.707031 -61.960938 133.96875 -65.296875 C 131.238281 -68.640625 127.144531 -70.3125 121.6875 -70.3125 C 116.945312 -70.3125 113.332031 -68.882812 110.84375 -66.03125 C 108.351562 -63.175781 106.988281 -59.742188 106.75 -55.734375 L 106.75 0 L 74.5 0 L 74.5 -52.828125 C 74.5 -57.804688 73.132812 -61.960938 70.40625 -65.296875 C 67.675781 -68.640625 63.578125 -70.3125 58.109375 -70.3125 C 53.128906 -70.3125 49.394531 -68.757812 46.90625 -65.65625 C 44.414062 -62.5625 43.171875 -58.890625 43.171875 -54.640625 L 43.171875 0 Z M 10.921875 0 "/></g></g></g><g fill="#043370" fill-opacity="1"><g transform="translate(275.154124, 163.662177)"><g><path d="M 51.546875 -96.171875 C 56.890625 -96.171875 62.171875 -95.5625 67.390625 -94.34375 C 72.617188 -93.132812 76.507812 -91.925781 79.0625 -90.71875 L 82.875 -88.890625 L 72.3125 -67.765625 C 65.03125 -71.648438 58.109375 -73.59375 51.546875 -73.59375 C 47.898438 -73.59375 45.316406 -73.195312 43.796875 -72.40625 C 42.285156 -71.613281 41.53125 -70.125 41.53125 -67.9375 C 41.53125 -67.457031 41.585938 -66.972656 41.703125 -66.484375 C 41.828125 -66.003906 42.070312 -65.550781 42.4375 -65.125 C 42.800781 -64.695312 43.132812 -64.332031 43.4375 -64.03125 C 43.75 -63.726562 44.265625 -63.394531 44.984375 -63.03125 C 45.710938 -62.664062 46.289062 -62.390625 46.71875 -62.203125 C 47.144531 -62.023438 47.84375 -61.753906 48.8125 -61.390625 C 49.789062 -61.023438 50.519531 -60.75 51 -60.5625 C 51.488281 -60.382812 52.304688 -60.113281 53.453125 -59.75 C 54.609375 -59.382812 55.492188 -59.140625 56.109375 -59.015625 C 59.867188 -57.921875 63.144531 -56.707031 65.9375 -55.375 C 68.726562 -54.039062 71.671875 -52.21875 74.765625 -49.90625 C 77.867188 -47.601562 80.269531 -44.691406 81.96875 -41.171875 C 83.664062 -37.648438 84.515625 -33.640625 84.515625 -29.140625 C 84.515625 -7.890625 69.757812 2.734375 40.25 2.734375 C 33.570312 2.734375 27.226562 1.703125 21.21875 -0.359375 C 15.207031 -2.429688 10.867188 -4.5 8.203125 -6.5625 L 4.1875 -9.84375 L 17.3125 -31.875 C 18.28125 -31.03125 19.550781 -30.03125 21.125 -28.875 C 22.707031 -27.71875 25.5625 -26.132812 29.6875 -24.125 C 33.820312 -22.125 37.40625 -21.125 40.4375 -21.125 C 47.113281 -21.125 50.453125 -23.375 50.453125 -27.875 C 50.453125 -29.9375 49.601562 -31.539062 47.90625 -32.6875 C 46.207031 -33.84375 43.320312 -35.148438 39.25 -36.609375 C 35.1875 -38.066406 32 -39.40625 29.6875 -40.625 C 23.863281 -43.65625 19.25 -47.082031 15.84375 -50.90625 C 12.445312 -54.738281 10.75 -59.8125 10.75 -66.125 C 10.75 -75.59375 14.421875 -82.96875 21.765625 -88.25 C 29.109375 -93.53125 39.035156 -96.171875 51.546875 -96.171875 Z M 51.546875 -96.171875 "/></g></g></g></g></g></svg>